<?xml version="1.0" standalone="no"?>
<!DOCTYPE svg PUBLIC "-//W3C//DTD SVG 20010904//EN"
 "http://www.w3.org/TR/2001/REC-SVG-20010904/DTD/svg10.dtd">
<svg version="1.0" xmlns="http://www.w3.org/2000/svg"
 width="1806.000000pt" height="1806.000000pt" viewBox="0 0 1806.000000 1806.000000"
 preserveAspectRatio="xMidYMid meet">
<metadata>
Created by potrace 1.14, written by Peter Selinger 2001-2017
</metadata>
<g transform="translate(0.000000,1806.000000) scale(0.100000,-0.100000)"
fill="#000000" stroke="none">
<path d="M12015 15990 c-64 -13 -134 -49 -183 -94 -44 -40 -108 -160 -284
-536 -33 -70 -89 -189 -178 -375 -100 -211 -145 -305 -170 -360 -15 -33 -57
-121 -93 -195 -64 -135 -115 -243 -167 -355 -15 -33 -64 -136 -109 -229 -45
-93 -81 -170 -81 -171 0 -3 -75 -162 -162 -345 -28 -58 -63 -132 -78 -165 -39
-85 -94 -202 -157 -335 -31 -63 -68 -142 -83 -175 -15 -33 -49 -105 -75 -160
-26 -55 -81 -172 -122 -259 -41 -88 -89 -191 -108 -230 -18 -39 -65 -138 -104
-220 -39 -82 -71 -150 -71 -152 0 -1 -29 -62 -64 -136 -35 -73 -89 -189 -121
-258 -32 -69 -86 -185 -121 -258 -35 -74 -64 -135 -64 -137 0 -3 -49 -107
-150 -320 -24 -49 -57 -121 -75 -160 -18 -38 -46 -99 -63 -135 -16 -36 -50
-108 -75 -160 -25 -52 -61 -129 -80 -170 -38 -83 -91 -194 -162 -345 -26 -55
-58 -125 -72 -155 -14 -30 -42 -91 -63 -135 -21 -44 -54 -114 -73 -155 -19
-41 -60 -128 -91 -194 -31 -65 -56 -120 -56 -121 0 -2 -34 -74 -75 -160 -41
-86 -75 -158 -75 -160 0 -1 -24 -54 -54 -116 -47 -100 -122 -260 -230 -493
-31 -65 -263 -561 -369 -786 -24 -52 -54 -117 -67 -145 -12 -27 -44 -95 -70
-150 -26 -55 -62 -131 -80 -170 -76 -163 -114 -243 -137 -295 -14 -30 -54
-115 -89 -188 -35 -73 -64 -135 -64 -137 0 -2 -27 -61 -61 -132 -33 -70 -70
-148 -81 -173 -11 -25 -47 -101 -79 -169 -33 -67 -59 -124 -59 -126 0 -2 -25
-56 -56 -121 -31 -66 -70 -148 -86 -184 -17 -36 -55 -116 -84 -178 -30 -62
-54 -115 -54 -116 0 -2 -29 -64 -64 -137 -35 -74 -74 -156 -86 -184 -13 -27
-43 -93 -67 -145 -25 -52 -56 -120 -70 -150 -14 -30 -54 -115 -89 -189 -35
-73 -64 -135 -64 -137 0 -1 -23 -51 -51 -111 -28 -59 -82 -173 -119 -253 -37
-80 -85 -181 -105 -225 -21 -44 -52 -111 -70 -150 -67 -145 -119 -254 -188
-395 l-71 -145 1 -100 c0 -113 3 -128 38 -201 101 -207 370 -285 573 -167 78
45 110 86 179 230 36 76 86 181 111 233 24 52 67 141 93 198 27 56 72 150 100
210 28 59 90 188 136 287 47 99 106 223 130 275 25 52 78 165 118 251 40 86
78 164 84 175 6 10 26 53 45 94 18 41 55 120 82 175 26 55 48 102 49 105 2 6
35 76 126 268 38 80 69 146 69 147 0 2 31 68 69 147 37 79 80 168 94 198 14
30 51 109 82 175 31 66 70 147 85 180 56 120 104 223 171 364 38 79 69 145 69
147 0 1 27 60 61 131 90 189 165 349 296 628 42 88 93 198 116 245 22 47 56
121 77 165 20 44 53 114 73 155 60 128 416 886 472 1005 36 78 110 234 160
340 31 66 79 169 147 315 17 36 51 108 75 160 25 52 57 120 70 150 14 30 54
115 89 189 35 73 64 135 64 137 0 1 27 60 61 131 33 70 71 151 84 178 13 28
40 86 60 130 21 44 50 107 65 140 15 33 48 103 73 155 65 137 122 259 182 390
29 63 85 182 124 264 39 82 71 150 71 152 0 2 20 45 44 96 58 123 478 1020
528 1128 22 47 55 117 73 155 18 39 47 99 63 135 16 36 51 110 77 165 26 55
61 129 77 165 17 36 47 101 68 145 42 89 98 209 140 300 15 33 55 116 87 185
33 69 71 148 83 175 12 28 42 91 65 140 24 50 59 124 78 165 19 41 90 192 157
335 67 143 135 287 150 320 15 33 51 110 80 170 29 61 65 137 80 170 15 33 56
119 90 190 94 197 102 220 105 313 4 106 -20 181 -84 264 -94 124 -255 180
-416 148z"/>
<path d="M4428 13949 c-21 -5 -65 -22 -97 -39 -62 -31 -114 -81 -317 -305 -60
-66 -127 -140 -150 -165 -53 -58 -77 -84 -171 -189 -43 -47 -101 -111 -129
-141 -28 -30 -66 -72 -85 -94 -19 -21 -45 -50 -59 -65 -14 -15 -45 -50 -70
-77 -25 -27 -91 -99 -145 -159 -142 -156 -166 -183 -200 -220 -39 -41 -186
-203 -205 -225 -8 -9 -51 -57 -95 -105 -44 -48 -89 -97 -100 -109 -11 -12 -56
-62 -100 -111 -44 -48 -91 -100 -105 -115 -14 -15 -59 -65 -100 -110 -41 -46
-89 -98 -105 -116 -17 -18 -60 -65 -97 -106 -36 -40 -76 -85 -89 -99 -13 -14
-60 -65 -104 -114 -44 -49 -103 -114 -131 -144 -28 -31 -102 -112 -164 -181
-123 -137 -133 -147 -299 -330 -63 -69 -153 -168 -200 -220 -47 -52 -108 -119
-136 -150 -27 -30 -54 -59 -60 -66 -44 -49 -173 -190 -185 -203 -9 -9 -97
-106 -195 -216 -99 -109 -187 -207 -195 -215 -8 -9 -49 -54 -90 -100 -41 -46
-80 -88 -85 -94 -56 -59 -109 -133 -132 -182 -25 -52 -28 -70 -28 -159 1 -91
4 -107 32 -166 26 -56 107 -161 193 -250 25 -26 159 -174 193 -213 40 -45 92
-104 141 -156 28 -31 85 -94 126 -140 41 -46 84 -93 95 -104 11 -12 42 -46 69
-76 27 -30 72 -80 100 -110 43 -46 217 -238 251 -276 10 -11 160 -176 204
-223 12 -14 55 -62 95 -105 39 -44 82 -91 96 -106 14 -15 61 -67 105 -116 44
-48 87 -95 95 -104 8 -9 53 -58 100 -110 47 -52 94 -104 105 -116 19 -19 178
-193 200 -218 25 -29 124 -137 174 -191 31 -33 99 -107 151 -165 52 -57 102
-111 110 -120 8 -9 53 -58 100 -110 81 -90 158 -174 260 -284 25 -27 50 -54
55 -60 46 -52 184 -204 200 -221 17 -17 64 -69 220 -239 11 -12 56 -62 100
-111 44 -48 91 -100 105 -115 14 -15 59 -65 101 -111 42 -46 89 -97 104 -114
15 -16 60 -65 99 -108 39 -43 85 -93 101 -110 17 -18 68 -74 114 -125 69 -75
97 -99 155 -127 245 -121 521 1 581 257 12 54 13 151 1 208 -10 45 -64 144
-101 185 -21 22 -74 81 -119 130 -46 50 -109 119 -141 155 -33 36 -64 70 -70
76 -5 6 -44 48 -85 94 -41 46 -86 95 -100 110 -14 15 -61 67 -105 116 -44 48
-107 116 -139 151 -32 35 -66 72 -75 82 -18 20 -151 167 -195 215 -15 17 -44
49 -65 71 -116 129 -242 266 -282 310 -26 28 -64 70 -85 94 -22 24 -55 60 -74
81 -19 20 -69 74 -110 120 -41 46 -82 91 -90 100 -8 9 -55 61 -105 115 -120
133 -186 205 -210 230 -11 12 -54 59 -95 105 -41 46 -88 97 -104 114 -45 49
-94 103 -196 216 -52 58 -108 119 -125 136 -16 18 -61 67 -100 110 -38 43 -79
88 -90 100 -11 12 -54 59 -95 104 -41 45 -84 92 -95 104 -11 12 -56 62 -100
111 -44 48 -85 93 -90 99 -18 19 -126 137 -215 235 -47 52 -96 106 -110 121
-14 15 -63 69 -110 121 -47 51 -107 118 -135 148 -27 30 -57 62 -65 71 -8 9
-34 38 -58 63 l-43 47 48 52 c26 29 53 58 58 64 12 14 191 208 225 245 14 15
59 64 100 110 41 46 82 90 90 99 15 16 190 207 260 284 19 21 49 54 65 72 17
18 60 65 97 106 36 40 79 87 94 103 16 17 63 68 104 114 41 46 89 98 105 115
17 18 66 72 110 121 44 48 85 93 91 99 5 6 59 65 119 131 60 66 114 125 120
131 5 6 46 50 90 99 44 49 91 100 105 115 14 14 61 66 105 115 44 49 87 96 95
105 8 9 58 63 110 120 52 57 102 111 110 120 8 9 58 63 110 120 52 58 97 107
100 110 3 3 25 28 50 55 25 28 90 100 146 160 56 61 112 122 125 136 13 15 60
66 104 114 44 48 87 96 95 105 27 31 244 268 325 356 17 17 46 49 65 70 108
120 340 375 372 409 20 22 48 52 62 68 99 108 137 280 92 423 -59 190 -285
319 -478 273z"/>
<path d="M13440 13944 c-189 -51 -323 -239 -306 -428 8 -95 43 -181 99 -246
31 -36 177 -198 212 -235 11 -11 40 -43 65 -71 25 -27 88 -97 141 -154 53 -58
107 -117 120 -131 60 -66 176 -195 199 -219 14 -15 63 -69 110 -120 47 -51 90
-98 95 -104 6 -6 80 -87 165 -181 85 -93 157 -172 160 -175 3 -3 46 -50 95
-105 50 -55 99 -109 110 -121 11 -11 56 -61 100 -109 44 -49 97 -107 118 -129
20 -21 51 -55 69 -75 17 -20 52 -58 77 -86 26 -27 73 -79 106 -115 69 -77 222
-244 250 -274 31 -33 111 -122 205 -225 47 -52 94 -104 105 -116 11 -11 65
-70 120 -130 55 -61 105 -115 110 -121 6 -6 44 -48 85 -94 41 -45 86 -95 100
-109 14 -14 63 -69 110 -121 47 -52 92 -101 100 -110 8 -9 58 -63 110 -120 52
-58 124 -136 160 -175 36 -39 88 -96 115 -126 117 -129 244 -267 297 -323 32
-34 53 -66 50 -72 -6 -11 -72 -83 -233 -258 -30 -34 -127 -140 -214 -236 -88
-96 -178 -195 -201 -220 -81 -88 -99 -108 -134 -147 -19 -21 -98 -108 -175
-193 -77 -85 -145 -159 -151 -165 -5 -5 -50 -55 -100 -110 -49 -55 -96 -107
-104 -115 -8 -8 -56 -60 -105 -115 -50 -55 -92 -102 -95 -105 -3 -3 -54 -59
-114 -125 -60 -66 -150 -165 -200 -219 -50 -54 -98 -107 -106 -116 -8 -10 -53
-59 -100 -110 -47 -51 -89 -98 -95 -104 -5 -6 -50 -56 -100 -111 -49 -55 -99
-109 -110 -121 -11 -11 -56 -61 -100 -109 -44 -49 -87 -96 -95 -105 -8 -9 -58
-63 -110 -121 -52 -57 -113 -124 -135 -148 -22 -24 -44 -49 -50 -55 -5 -6 -55
-61 -110 -121 -55 -60 -104 -115 -110 -121 -22 -25 -182 -200 -208 -228 -15
-16 -62 -68 -105 -115 -42 -47 -102 -113 -132 -146 -31 -33 -71 -77 -90 -99
-19 -21 -48 -53 -65 -70 -16 -18 -59 -65 -95 -105 -36 -40 -84 -94 -108 -119
-130 -136 -162 -329 -82 -497 33 -70 103 -145 157 -169 21 -10 47 -22 58 -27
22 -10 135 -27 157 -23 7 1 33 5 58 8 25 4 77 22 116 41 59 29 87 51 155 127
46 51 91 99 99 108 8 9 55 61 105 116 49 54 111 122 136 149 26 28 59 64 74
80 15 17 62 68 105 115 43 47 89 97 101 111 13 14 65 70 114 124 50 54 99 108
110 121 11 12 36 39 55 60 20 22 107 118 195 214 87 96 178 195 201 220 23 25
52 56 64 70 12 14 63 70 113 124 51 55 112 122 137 149 25 27 60 66 78 86 19
19 58 63 87 96 30 33 75 83 102 111 26 28 82 89 123 135 41 46 84 93 95 104
11 12 81 88 155 170 74 82 142 157 150 165 17 18 179 196 195 214 6 7 35 39
65 72 30 33 73 80 95 104 44 48 107 118 251 275 50 55 113 125 140 155 27 30
60 66 74 81 14 14 43 46 64 70 22 24 64 71 95 105 31 33 88 95 126 138 89 100
107 119 169 187 81 88 154 169 322 358 21 24 59 64 82 90 24 25 60 79 80 120
32 66 36 83 38 164 3 137 -34 229 -138 337 -29 31 -87 93 -128 139 -41 46 -86
95 -100 110 -50 55 -195 214 -212 233 -27 31 -267 295 -303 333 -11 12 -51 57
-90 99 -38 43 -86 95 -105 116 -19 21 -69 75 -110 121 -41 45 -86 94 -99 108
-71 78 -176 193 -190 209 -9 11 -52 59 -96 107 -101 111 -103 113 -205 225
-47 52 -92 101 -100 110 -8 9 -80 88 -159 175 -79 88 -149 165 -155 170 -6 6
-29 30 -51 55 -22 25 -80 89 -129 143 -49 54 -96 106 -105 116 -24 27 -162
179 -191 210 -24 26 -176 192 -252 275 -62 69 -90 100 -174 192 -45 49 -155
170 -245 269 -89 99 -165 182 -168 185 -4 3 -44 48 -91 100 -47 52 -96 107
-110 121 -14 14 -56 61 -95 104 -38 43 -79 88 -90 100 -11 11 -40 43 -65 71
-125 138 -229 251 -261 285 -106 109 -256 151 -399 113z"/>
</g>
</svg>
